 <svg  version="1.0" xmlns="http://www.w3.org/2000/svg"  width="300.000000pt" height="169.000000pt" viewBox="0 0 300.000000 169.000000"  preserveAspectRatio="xMidYMid meet">  <g transform="translate(0.000000,169.000000) scale(0.100000,-0.100000)" fill="#fcfcfc" stroke="none"> <path d="M757 1643 c-71 -45 -118 -47 -197 -9 -96 45 -195 31 -279 -40 -61 -51 -90 -154 -57 -200 18 -23 29 -14 46 39 13 42 53 73 108 83 33 6 162 -21 162 -35 0 -3 -20 -26 -45 -50 -24 -24 -51 -59 -60 -77 -8 -17 -25 -34 -38 -38 -50 -12 -99 -92 -78 -125 8 -12 14 -13 36 -3 52 24 58 12 14 -27 -37 -33 -42 -42 -33 -58 8 -12 24 -18 52 -19 49 0 72 -17 72 -53 0 -39 -9 -47 -71 -65 -75 -21 -151 -88 -173 -153 -20 -58 -20 -65 0 -111 15 -35 16 -36 30 -18 8 11 14 29 14 40 0 33 42 84 95 113 42 23 64 28 136 30 85 2 89 1 174 -42 l87 -45 51 45 c58 50 114 80 173 90 71 13 69 2 72 322 l4 288 -24 21 c-33 30 -191 134 -203 134 -5 -1 -36 -17 -68 -37z m169 -55 l93 -63 1 -286 0 -286 -39 -7 c-65 -10 -128 -43 -182 -93 -43 -40 -53 -45 -67 -35 -9 7 -46 27 -82 45 -59 29 -74 32 -155 32 -76 0 -98 -4 -140 -26 -64 -32 -115 -97 -116 -147 -1 -35 -1 -36 -9 -10 -26 88 57 199 177 234 56 16 68 26 78 65 15 61 -57 125 -112 100 -14 -6 -27 -10 -30 -8 -8 9 61 58 88 64 33 6 35 10 13 41 -18 26 -59 29 -92 6 -26 -18 -27 -13 -7 25 13 26 67 61 94 61 6 0 11 8 11 18 0 31 38 80 97 126 68 53 90 61 40 13 -50 -46 -71 -125 -62 -224 12 -129 8 -172 -19 -225 -14 -27 -21 -46 -16 -43 5 3 38 8 72 10 46 4 68 11 86 28 47 43 52 71 52 302 0 118 -4 215 -8 215 -5 0 -16 -16 -25 -35 -14 -29 -17 -67 -17 -211 0 -201 -9 -233 -80 -273 -51 -28 -53 -27 -27 17 20 34 22 50 22 202 0 151 2 169 23 207 12 23 26 45 32 48 6 4 8 11 5 16 -4 5 1 9 9 9 8 0 17 4 20 8 3 5 -18 7 -47 5 -36 -3 -71 2 -111 16 -75 26 -118 26 -172 0 -48 -22 -90 -91 -78 -124 5 -13 4 -16 -4 -11 -30 18 -3 118 46 170 64 68 189 88 268 42 22 -13 53 -26 68 -30 37 -9 102 10 151 45 22 15 44 28 49 29 5 0 51 -28 102 -62z"/> <path d="M790 1608 c-20 -17 -21 -20 -5 -13 11 4 26 8 33 8 6 0 12 6 12 14 0 18 -11 16 -40 -9z"/> <path d="M425 1615 c-5 -2 -23 -6 -38 -9 -15 -4 -25 -11 -22 -16 4 -6 12 -7 18 -3 20 12 40 13 54 1 11 -8 12 -7 7 7 -5 12 -4 16 4 11 6 -3 13 -2 17 4 6 9 -18 12 -40 5z"/> <path d="M484 1598 c-4 -7 -4 -10 1 -6 4 4 14 3 22 -3 10 -9 13 -8 13 5 0 19 -26 22 -36 4z"/> <path d="M860 1600 c0 -5 5 -10 11 -10 5 0 7 5 4 10 -3 6 -8 10 -11 10 -2 0 -4 -4 -4 -10z"/> <path d="M540 1588 c0 -10 -4 -18 -10 -18 -5 0 -10 -4 -10 -10 0 -13 27 -13 35 0 3 5 1 18 -4 27 -10 17 -10 17 -11 1z"/> <path d="M335 1580 c-3 -5 -1 -10 4 -10 6 0 11 5 11 10 0 6 -2 10 -4 10 -3 0 -8 -4 -11 -10z"/> <path d="M757 1580 c6 -8 11 -61 11 -120 1 -118 8 -130 72 -130 57 0 72 17 68 79 l-3 54 -65 44 c-36 25 -65 49 -65 53 0 5 -7 15 -15 22 -12 11 -12 11 -3 -2z m86 -105 c33 -23 37 -30 37 -70 0 -29 -5 -46 -12 -47 -7 0 -20 -2 -28 -3 -39 -4 -50 14 -50 80 0 36 3 65 8 65 4 0 24 -11 45 -25z"/> <path d="M890 1583 c0 -18 57 -64 86 -68 28 -4 27 -3 -6 11 -19 9 -45 27 -57 41 -13 15 -23 22 -23 16z"/> <path d="M299 1553 c-13 -16 -12 -17 4 -4 9 7 17 15 17 17 0 8 -8 3 -21 -13z"/> <path d="M660 1544 c0 -8 5 -12 10 -9 6 3 10 10 10 16 0 5 -4 9 -10 9 -5 0 -10 -7 -10 -16z"/> <path d="M727 1533 c-4 -3 -7 -99 -7 -212 0 -224 -7 -271 -48 -314 l-27 -28 40 3 c59 5 64 26 64 316 1 221 -2 255 -22 235z"/> <path d="M492 1368 c-14 -14 -16 -38 -3 -38 5 0 11 11 13 25 6 29 6 29 -10 13z"/> <path d="M926 1355 c4 -8 13 -15 21 -15 10 0 13 -6 9 -16 -5 -14 -4 -15 9 -4 20 17 20 17 -15 35 -26 13 -29 14 -24 0z"/> <path d="M765 1245 c0 -67 3 -84 13 -80 39 15 63 15 96 1 l36 -15 0 89 0 88 -39 -15 c-36 -14 -42 -14 -72 1 -17 9 -33 16 -33 16 -1 0 -1 -38 -1 -85z m115 -6 l0 -39 -45 0 -45 0 0 38 0 39 45 1 45 0 0 -39z"/> <path d="M470 1303 c0 -6 -12 -16 -27 -21 -24 -9 -25 -11 -7 -11 23 -1 51 25 40 36 -3 3 -6 1 -6 -4z"/> <path d="M932 1305 c4 -4 3 -18 -2 -31 -6 -14 -6 -26 0 -29 6 -4 10 2 10 12 0 11 5 24 11 30 7 7 5 12 -8 17 -9 4 -14 4 -11 1z"/> <path d="M964 1169 c0 -10 4 -19 8 -19 4 0 8 6 8 14 0 8 -4 17 -8 20 -4 2 -8 -4 -8 -15z"/> <path d="M605 1150 c3 -5 8 -10 11 -10 2 0 4 5 4 10 0 6 -5 10 -11 10 -5 0 -7 -4 -4 -10z"/> <path d="M792 1147 c-20 -10 -25 -21 -28 -71 -2 -33 -10 -69 -18 -80 -13 -20 -11 -22 28 -37 40 -15 43 -15 88 10 l48 26 0 68 0 68 -35 15 c-42 17 -53 17 -83 1z m92 -56 c14 -65 -32 -121 -88 -107 -21 5 -26 11 -21 24 3 9 9 38 12 64 5 38 10 48 27 50 42 7 65 -3 70 -31z"/> <path d="M428 1143 c6 -2 18 -2 25 0 6 3 1 5 -13 5 -14 0 -19 -2 -12 -5z"/> <path d="M923 1098 c1 -13 10 -29 20 -36 20 -15 23 -42 5 -42 -9 0 -8 -4 2 -10 13 -9 13 -11 0 -19 -18 -12 -10 -23 9 -12 19 12 17 82 -3 93 -9 5 -16 15 -16 23 0 8 -4 17 -10 20 -6 4 -9 -4 -7 -17z"/> <path d="M876 959 c-28 -15 -35 -23 -26 -29 8 -5 18 -4 24 3 6 7 20 20 31 30 25 22 19 21 -29 -4z"/> <path d="M615 960 c-4 -6 2 -9 14 -7 29 4 39 17 13 17 -11 0 -24 -5 -27 -10z"/> <path d="M674 946 c-7 -28 -19 -34 -27 -13 -2 6 -8 8 -13 4 -8 -8 12 -27 29 -27 9 0 30 51 23 58 -3 2 -8 -7 -12 -22z"/> <path d="M503 951 c-24 -4 -46 -11 -50 -16 -5 -4 5 -5 20 -1 18 4 35 2 45 -6 12 -10 14 -10 8 0 -5 8 0 12 13 13 33 2 39 4 47 12 9 8 -23 7 -83 -2z"/> <path d="M708 953 c6 -2 18 -2 25 0 6 3 1 5 -13 5 -14 0 -19 -2 -12 -5z"/> <path d="M757 939 c7 -7 15 -10 18 -7 3 3 -2 9 -12 12 -14 6 -15 5 -6 -5z"/> <path d="M348 904 c-39 -21 -35 -28 5 -8 37 19 44 24 31 24 -5 -1 -21 -8 -36 -16z"/> <path d="M725 901 c-3 -5 -1 -12 5 -16 5 -3 10 1 10 9 0 18 -6 21 -15 7z"/> <path d="M2404 1558 c-15 -24 -35 -55 -46 -70 -18 -26 -18 -27 6 -55 l24 -28 -46 -49 -46 -49 27 -23 c27 -23 27 -24 27 -159 0 -107 -3 -141 -16 -160 -15 -23 -14 -26 28 -75 60 -70 71 -71 129 -14 55 54 61 80 24 94 -25 9 -25 10 -25 146 0 110 3 141 17 165 l17 29 -44 46 -45 45 28 22 c15 12 39 31 53 43 l27 20 -30 35 c-17 19 -35 44 -42 57 -17 33 -38 27 -67 -20z m46 7 c0 -8 15 -30 34 -49 34 -34 35 -34 12 -40 -13 -3 -37 -19 -54 -34 l-31 -29 -19 26 c-19 26 -19 26 10 65 15 21 28 47 28 57 0 11 5 19 10 19 6 0 10 -7 10 -15z m35 -275 c-17 -19 -28 -284 -12 -315 13 -26 29 -36 46 -30 7 3 -10 -16 -38 -43 l-52 -49 -42 43 c-38 37 -41 45 -30 60 10 14 13 58 11 179 -3 158 -3 160 -26 163 -20 3 -19 7 24 45 l46 42 44 -40 c38 -35 42 -41 29 -55z"/> <path d="M2405 1480 c-3 -5 -1 -10 4 -10 6 0 11 5 11 10 0 6 -2 10 -4 10 -3 0 -8 -4 -11 -10z"/> <path d="M2405 1350 c-3 -5 -1 -10 4 -10 6 0 11 5 11 10 0 6 -2 10 -4 10 -3 0 -8 -4 -11 -10z"/> <path d="M2414 1308 c1 -13 7 -23 12 -23 5 0 10 10 12 23 2 15 -2 22 -12 22 -11 0 -15 -7 -12 -22z"/> <path d="M2406 1212 c-3 -6 -1 -14 5 -17 14 -9 20 -2 10 14 -6 8 -11 9 -15 3z"/> <path d="M2420 1116 c0 -8 -6 -17 -12 -19 -8 -4 -7 -6 4 -6 9 -1 18 -7 21 -13 2 -7 4 2 3 19 -1 31 -16 49 -16 19z"/> <path d="M1253 1389 c-23 -14 -49 -20 -92 -20 -87 -1 -93 -13 -47 -100 l38 -71 -30 -32 c-81 -87 -73 -233 18 -309 l31 -26 -28 -6 c-66 -14 -101 -26 -112 -39 -10 -12 -4 -12 36 1 32 11 90 16 174 17 123 1 127 0 189 -31 l63 -33 66 33 c63 31 71 32 181 32 76 -1 136 -6 175 -17 50 -14 57 -14 40 -2 -20 15 -107 44 -132 44 -24 0 -13 18 32 56 l45 37 45 -47 c25 -25 49 -46 54 -46 4 0 30 24 56 52 27 29 50 47 52 41 8 -22 48 -76 64 -86 13 -8 27 -2 65 32 70 61 73 69 35 100 l-31 26 0 125 c1 89 5 132 15 150 8 14 14 31 15 38 0 17 -91 102 -110 102 -9 0 -33 -20 -53 -45 -21 -25 -41 -45 -45 -45 -4 0 -15 18 -25 40 -26 56 -49 59 -105 14 -26 -21 -50 -43 -54 -49 -4 -6 -27 9 -55 38 -27 26 -55 47 -63 47 -8 0 -33 -21 -55 -47 l-42 -47 -23 42 c-33 59 -52 61 -108 16 -72 -58 -79 -77 -37 -96 25 -11 25 -12 25 -146 0 -103 -4 -142 -16 -168 l-16 -34 48 -50 c27 -28 53 -50 59 -50 5 0 29 23 53 50 48 55 58 60 67 30 4 -11 17 -32 31 -45 13 -13 24 -27 24 -30 0 -3 -30 -5 -67 -5 -41 -1 -90 -8 -123 -20 -48 -17 -56 -17 -66 -5 -14 19 -28 19 -44 0 -11 -13 -15 -13 -41 0 -15 8 -40 15 -54 15 -25 0 -23 3 26 45 30 25 57 52 62 61 10 18 -6 40 -34 49 -18 6 -19 17 -19 147 l0 140 30 35 c37 42 27 63 -30 63 -23 0 -51 9 -74 25 -44 30 -43 30 -83 4z m383 -84 l6 -35 30 25 c30 25 31 25 52 8 21 -18 21 -18 3 3 -17 20 -16 22 5 50 12 16 22 30 23 31 1 2 22 -16 48 -40 42 -39 45 -44 31 -61 -11 -15 -14 -55 -14 -166 0 -130 2 -149 19 -164 11 -10 25 -14 37 -10 10 4 17 5 14 2 -3 -2 -28 -26 -57 -52 l-52 -48 -31 48 -30 48 0 161 c0 180 -5 195 -52 167 -28 -16 -28 -17 -29 -117 -1 -149 1 -178 18 -197 14 -15 12 -21 -22 -60 l-38 -43 -41 40 c-38 37 -41 42 -29 62 20 34 18 316 -2 337 -9 8 -22 13 -30 10 -26 -10 -16 5 13 20 15 8 38 26 52 40 l25 25 22 -25 c12 -13 25 -40 29 -59z m397 8 l13 -44 46 43 c25 24 50 51 55 61 9 17 12 17 39 -10 16 -16 37 -34 48 -40 17 -9 17 -12 3 -34 -15 -22 -20 -115 -18 -276 1 -40 33 -75 58 -66 10 4 -6 -16 -36 -43 -30 -27 -57 -47 -60 -45 -3 3 -15 16 -26 30 -18 23 -21 45 -25 203 -6 199 -10 213 -59 179 l-31 -22 0 -138 c0 -121 2 -140 18 -154 18 -16 17 -19 -22 -59 l-40 -43 -40 40 -41 40 17 30 c15 24 18 54 18 160 0 146 -10 181 -51 178 -22 -2 -23 -1 -5 10 11 7 36 26 55 44 33 29 37 30 54 16 9 -9 23 -36 30 -60z m-696 41 c30 -20 46 -25 75 -21 l38 5 -30 -29 c-37 -38 -43 -68 -38 -219 3 -107 5 -123 23 -136 11 -8 25 -12 32 -10 24 10 11 -9 -37 -52 l-49 -44 -30 43 c-17 23 -31 48 -31 56 0 22 -12 15 -67 -39 -51 -51 -53 -51 -72 -34 -34 31 -61 98 -61 151 0 55 33 122 75 149 19 12 23 21 17 29 -12 14 -82 137 -82 144 0 2 5 1 11 -2 23 -15 111 -6 142 14 41 25 40 25 84 -5z m557 -74 l26 -10 0 -142 c0 -79 -4 -149 -9 -157 -9 -15 -51 -6 -63 13 -12 17 -9 265 2 287 12 22 11 22 44 9z m-195 -175 c2 -142 -5 -170 -29 -126 -5 11 -10 74 -10 140 0 115 3 127 32 130 3 1 7 -64 7 -144z m401 -7 c0 -141 -1 -151 -16 -136 -20 20 -31 217 -15 261 23 59 31 27 31 -125z m-782 -240 l24 -27 -76 2 c-42 1 -76 5 -76 8 0 4 19 24 41 44 39 35 43 36 52 19 5 -11 21 -31 35 -46z m184 -100 c-13 -13 -26 8 -17 30 6 16 7 16 17 -1 7 -13 7 -22 0 -29z"/> <path d="M1560 1340 c-20 -16 -21 -20 -8 -20 10 0 22 9 28 20 13 25 11 25 -20 0z"/> <path d="M1750 1350 c0 -5 5 -10 10 -10 6 0 10 5 10 10 0 6 -4 10 -10 10 -5 0 -10 -4 -10 -10z"/> <path d="M1767 1324 c-10 -10 -9 -42 2 -48 5 -3 11 0 14 7 6 16 -7 50 -16 41z"/> <path d="M1758 1208 c9 -11 10 -18 2 -23 -5 -3 -10 -19 -10 -34 0 -15 -5 -32 -12 -39 -9 -9 -9 -12 0 -12 7 0 12 5 12 10 0 6 12 11 28 11 23 2 24 2 5 6 -29 6 -29 26 -1 66 12 18 15 26 7 20 -12 -10 -18 -10 -29 0 -12 10 -12 9 -2 -5z"/> <path d="M1570 1150 c0 -19 3 -21 12 -12 9 9 9 15 0 24 -9 9 -12 7 -12 -12z"/> <path d="M1578 1083 c6 -2 18 -2 25 0 6 3 1 5 -13 5 -14 0 -19 -2 -12 -5z"/> <path d="M1576 1049 c-23 -23 -18 -24 18 -5 17 8 22 15 14 18 -7 3 -22 -3 -32 -13z"/> <path d="M1780 1039 c0 -5 5 -7 10 -4 6 3 10 8 10 11 0 2 -4 4 -10 4 -5 0 -10 -5 -10 -11z"/> <path d="M1750 1011 c0 -9 27 -41 35 -41 2 0 -2 11 -8 25 -12 25 -27 34 -27 16z"/> <path d="M1572 970 c0 -14 2 -19 5 -12 2 6 2 18 0 25 -3 6 -5 1 -5 -13z"/> <path d="M1761 954 c0 -11 3 -14 6 -6 3 7 2 16 -1 19 -3 4 -6 -2 -5 -13z"/> <path d="M1963 1343 c-13 -8 -23 -20 -23 -25 0 -7 5 -6 13 1 8 6 17 9 20 6 4 -3 5 -2 2 2 -3 3 0 12 6 20 15 17 10 16 -18 -4z"/> <path d="M2163 1305 c0 -13 9 -32 21 -42 l21 -18 -19 23 c-11 12 -15 22 -10 22 6 0 10 9 11 20 1 11 -4 20 -11 20 -8 0 -13 -11 -13 -25z"/> <path d="M2116 1311 c-3 -5 1 -11 9 -14 9 -4 12 -1 8 9 -6 16 -10 17 -17 5z"/> <path d="M2178 1195 c-20 -27 -22 -41 -8 -50 6 -3 7 1 4 10 -4 9 2 25 11 35 10 11 16 22 14 24 -2 2 -12 -6 -21 -19z"/> <path d="M1970 1100 c-13 -8 -12 -10 3 -10 12 0 17 -8 17 -30 0 -16 3 -30 8 -30 4 0 6 18 4 40 -4 42 -8 46 -32 30z"/> <path d="M2140 1049 c0 -9 48 -24 55 -17 2 2 -9 9 -25 15 -17 6 -30 7 -30 2z"/> <path d="M2161 995 c1 -19 18 -51 18 -35 0 8 -4 22 -9 30 -5 8 -9 11 -9 5z"/> <path d="M1270 1341 c0 -6 4 -13 10 -16 6 -3 7 1 4 9 -7 18 -14 21 -14 7z"/> <path d="M1234 1332 c-6 -4 7 -16 33 -28 24 -12 43 -18 43 -14 0 4 -11 12 -25 18 -14 6 -25 16 -25 22 0 12 -11 13 -26 2z"/> <path d="M1323 1320 c4 -14 7 -28 7 -32 0 -5 5 -8 10 -8 16 0 11 36 -7 51 -15 13 -16 11 -10 -11z"/> <path d="M1166 1261 c20 -33 55 -77 78 -98 l41 -38 3 69 c2 38 -1 72 -5 77 -4 4 -33 14 -63 22 -30 8 -63 18 -73 22 -13 5 -8 -8 19 -54z m92 -47 l2 -39 -30 33 c-39 42 -40 63 -2 53 23 -6 27 -13 30 -47z"/> <path d="M1320 1211 c0 -6 4 -13 10 -16 6 -3 7 1 4 9 -7 18 -14 21 -14 7z"/> <path d="M1182 1133 c-12 -58 -7 -108 14 -140 20 -32 40 -38 70 -23 22 12 24 20 24 82 0 48 -4 68 -13 68 -7 0 -29 14 -49 30 l-36 30 -10 -47z m56 -22 c17 -15 22 -30 22 -70 0 -44 -3 -51 -20 -51 -27 0 -40 29 -40 89 0 56 4 59 38 32z"/> <path d="M1345 1172 c8 -15 -12 -61 -35 -79 -12 -9 -9 -10 13 -6 15 3 26 10 25 17 -1 6 2 22 6 35 5 15 4 27 -4 35 -10 8 -11 8 -5 -2z"/> <path d="M1105 1040 c3 -5 18 -10 32 -10 32 0 28 5 -10 14 -19 4 -26 3 -22 -4z"/> <path d="M1325 1010 c3 -5 8 -10 11 -10 2 0 4 5 4 10 0 6 -5 10 -11 10 -5 0 -7 -4 -4 -10z"/> <path d="M1077 776 c-73 -20 -68 -27 14 -20 l74 6 17 -31 c20 -37 43 -48 63 -31 12 10 13 16 4 27 -9 10 -9 17 -1 25 8 8 29 7 78 -5 75 -19 85 -24 64 -37 -9 -6 -18 -3 -26 8 -12 16 -14 16 -30 0 -15 -14 -16 -22 -6 -42 14 -31 55 -43 94 -28 22 8 28 7 28 -3 0 -7 10 -25 22 -40 l22 -28 18 23 c10 12 18 28 18 36 0 8 9 14 20 14 11 0 20 -2 20 -5 0 -2 -20 -33 -45 -68 -30 -43 -45 -75 -45 -96 0 -37 -6 -38 -37 -10 -18 18 -25 20 -38 9 -8 -7 -25 -10 -39 -6 -16 4 -35 -3 -63 -23 l-39 -28 -53 35 c-48 32 -55 34 -75 22 -11 -7 -36 -22 -53 -33 l-33 -19 0 37 c0 27 -7 42 -26 58 -14 12 -43 37 -64 55 -44 38 -45 38 -101 12 -24 -11 -58 -20 -75 -20 -18 0 -38 -8 -49 -20 -15 -17 -16 -22 -4 -37 8 -10 20 -23 27 -28 9 -7 13 -51 13 -158 1 -129 -1 -150 -17 -168 -21 -23 -18 -27 60 -74 63 -38 62 -38 116 14 44 42 108 82 115 71 4 -6 23 -19 44 -30 42 -21 61 -13 61 24 0 18 2 17 28 -7 32 -31 48 -33 72 -12 16 14 22 14 59 -1 53 -21 71 -8 71 50 l1 41 22 -26 c12 -14 27 -35 33 -45 9 -15 16 -17 29 -9 14 8 29 5 63 -12 52 -26 62 -22 72 34 l7 38 11 -27 c23 -56 93 -73 107 -27 8 24 31 19 85 -17 38 -26 39 -26 118 33 28 21 32 30 34 76 1 48 2 47 7 -18 6 -68 7 -70 43 -90 32 -17 41 -18 58 -7 19 11 20 10 20 -27 0 -66 20 -69 76 -8 l49 53 0 144 0 145 -43 15 c-34 12 -46 12 -62 2 -19 -12 -20 -9 -20 72 0 96 -14 121 -46 83 -56 -64 -84 -116 -84 -156 l0 -42 -57 37 c-61 39 -58 39 -131 -7 -29 -19 -35 -20 -50 -7 -9 8 -30 20 -46 26 -24 11 -31 10 -47 -4 -10 -9 -20 -26 -22 -38 -2 -11 -5 26 -6 84 0 60 -6 111 -12 117 -7 7 -1 12 20 16 17 4 38 18 47 32 16 24 16 27 1 42 -15 15 -18 15 -34 0 -12 -11 -23 -13 -33 -7 -8 5 -12 11 -10 13 13 11 98 33 125 33 27 -1 30 -4 27 -29 -5 -51 61 -43 74 9 7 26 7 26 86 21 44 -3 78 -3 75 0 -10 9 -119 33 -153 33 -27 0 -31 -3 -27 -23 5 -25 -19 -57 -40 -57 -7 0 -4 5 6 11 25 15 21 48 -8 61 -30 14 -136 -10 -206 -46 l-46 -25 -49 25 c-74 36 -180 61 -202 48 -24 -16 -27 -45 -6 -61 15 -11 15 -13 2 -13 -24 0 -41 27 -36 55 5 23 3 25 -36 24 -22 0 -62 -6 -89 -13z m277 -71 c-11 -26 27 -30 70 -7 22 12 43 19 48 14 13 -13 -64 -44 -98 -40 -21 2 -30 9 -32 26 -2 12 1 22 7 22 6 0 8 -7 5 -15z m218 -9 c39 -20 74 -15 64 9 -3 8 -1 15 4 15 14 0 12 -24 -2 -38 -7 -7 -22 -12 -35 -12 -35 0 -96 28 -88 40 4 6 10 10 13 8 4 -2 23 -12 44 -22z m-68 -70 l-6 -30 -15 28 c-12 23 -13 34 -3 55 l12 26 10 -24 c5 -14 6 -38 2 -55z m74 -193 c-2 -51 -2 -93 0 -93 14 0 61 71 62 93 0 24 2 26 19 15 11 -7 18 -15 16 -19 -3 -3 8 -4 23 -1 26 4 25 3 -16 -40 l-44 -45 40 -79 c35 -69 38 -82 27 -98 -12 -16 -16 -17 -35 -3 -11 8 -36 47 -55 86 -19 39 -36 71 -37 71 -2 0 -1 -40 0 -89 l4 -90 -37 19 -37 19 0 165 c0 160 1 166 25 198 14 18 29 44 33 58 8 21 9 18 12 -25 2 -27 2 -91 0 -142z m485 52 l-6 -135 32 0 c31 0 31 1 31 49 l0 48 38 -10 37 -10 0 -131 c0 -124 -1 -132 -23 -149 -12 -11 -30 -34 -40 -52 -17 -34 -17 -33 -14 83 l4 118 -29 -2 -28 -1 0 -74 1 -74 -42 19 c-40 19 -41 21 -33 55 11 49 5 88 -16 111 -18 19 -17 20 4 20 22 0 23 2 16 76 -7 68 -5 77 13 97 12 12 28 39 37 60 8 20 17 37 19 37 3 0 2 -61 -1 -135z m-1102 55 c28 -22 54 -40 57 -40 4 0 6 -68 5 -151 l-2 -152 -30 -18 c-16 -9 -50 -37 -74 -61 l-46 -43 -26 23 c-15 13 -40 26 -56 29 -34 6 -38 19 -9 28 17 5 20 15 20 61 0 34 4 53 10 49 6 -3 10 -1 10 4 0 6 -4 11 -10 11 -6 0 -10 40 -10 100 0 76 3 100 13 100 9 0 13 -10 12 -27 -2 -19 -1 -21 2 -5 3 14 12 22 24 22 18 0 19 -9 19 -161 l0 -161 34 29 35 28 0 127 1 127 -27 19 c-21 13 -40 17 -74 14 -38 -3 -51 0 -75 22 l-29 25 40 1 c22 0 58 9 80 19 22 11 44 20 48 20 4 1 30 -17 58 -39z m281 -169 c-4 -27 -2 -33 9 -26 9 5 11 5 4 -2 -5 -6 -36 -21 -67 -33 l-58 -24 0 -67 0 -67 -40 15 c-33 13 -38 19 -30 34 6 10 10 35 10 57 0 23 6 45 15 52 10 9 15 9 15 1 0 -6 4 -11 8 -11 7 0 8 27 3 48 -1 2 -9 -4 -18 -14 -17 -17 -18 -16 -24 17 -3 19 -8 39 -12 45 -3 6 9 16 27 22 18 7 41 21 50 31 17 18 18 18 65 -13 45 -29 48 -33 43 -65z m693 -68 c0 -72 -4 -103 -12 -103 -6 0 -25 -11 -41 -25 -37 -31 -37 -31 -74 0 -16 14 -35 25 -41 25 -8 0 -12 31 -12 105 0 104 0 105 27 116 15 6 34 19 43 29 15 17 18 16 63 -14 l47 -31 0 -102z m-575 131 c0 -19 -4 -25 -15 -20 -20 7 -19 -8 1 -25 12 -10 15 -24 11 -52 l-5 -40 39 39 c36 35 38 39 22 56 -15 17 -17 17 -35 2 -32 -30 -22 9 12 41 l30 29 32 -30 c18 -16 35 -30 37 -32 3 -1 -17 -25 -44 -52 -27 -27 -47 -51 -44 -53 2 -3 17 -11 32 -19 26 -13 29 -20 31 -67 1 -41 -1 -49 -9 -35 -13 24 -86 104 -94 104 -3 0 -4 -30 -3 -66 2 -36 0 -64 -5 -62 -4 2 -22 10 -38 16 l-31 12 7 73 c4 39 5 81 3 92 -1 11 -4 30 -6 42 -2 15 7 29 32 46 19 14 36 26 38 26 1 1 2 -11 2 -25z m-449 -105 c-1 -62 -3 -115 -6 -117 -3 -3 -5 50 -5 118 0 68 3 121 6 118 3 -4 5 -57 5 -119z m818 -26 l0 -88 -32 63 -32 62 29 25 c16 14 31 25 33 25 1 0 3 -39 2 -87z m-249 7 c0 -28 -2 -30 -21 -20 -20 11 -20 12 -3 31 23 25 24 24 24 -11z m-433 -12 c-3 -8 -6 -5 -6 6 -1 11 2 17 5 13 3 -3 4 -12 1 -19z m206 -104 c4 -4 0 -15 -9 -25 -15 -17 -18 -17 -40 -2 -21 13 -24 23 -24 72 0 53 2 58 28 67 l27 10 5 -57 c3 -32 8 -61 13 -65z m-206 64 c-3 -8 -6 -5 -6 6 -1 11 2 17 5 13 3 -3 4 -12 1 -19z"/> <path d="M2015 430 c3 -5 11 -10 16 -10 6 0 7 5 4 10 -3 6 -11 10 -16 10 -6 0 -7 -4 -4 -10z"/> <path d="M842 350 c0 -19 2 -27 5 -17 2 9 2 25 0 35 -3 9 -5 1 -5 -18z"/> <path d="M1130 365 c0 -44 0 -44 25 -33 30 14 34 53 6 68 -29 15 -31 14 -31 -35z"/> <path d="M1820 316 c0 -97 12 -130 38 -104 16 16 16 170 0 186 -30 30 -38 13 -38 -82z"/> <path d="M1895 280 c-3 -5 -1 -10 4 -10 6 0 11 5 11 10 0 6 -2 10 -4 10 -3 0 -8 -4 -11 -10z"/> </g> </svg> 