<?xml version="1.0" encoding="UTF-8" standalone="no"?>
<svg
   version="1.0"
   width="145.60316pt"
   height="65.400009pt"
   viewBox="0 0 145.60316 65.400009"
   preserveAspectRatio="xMidYMid"
   id="svg2"
   sodipodi:docname="DD.svg"
   xmlns:inkscape="http://www.inkscape.org/namespaces/inkscape"
   xmlns:sodipodi="http://sodipodi.sourceforge.net/DTD/sodipodi-0.dtd"
   xmlns="http://www.w3.org/2000/svg"
   xmlns:svg="http://www.w3.org/2000/svg">
  <defs
     id="defs2" />
  <sodipodi:namedview
     id="namedview2"
     pagecolor="#ffffff"
     bordercolor="#000000"
     borderopacity="0.25"
     inkscape:showpageshadow="2"
     inkscape:pageopacity="0.0"
     inkscape:pagecheckerboard="0"
     inkscape:deskcolor="#d1d1d1"
     inkscape:document-units="pt"
     inkscape:export-bgcolor="#ffffff00" />
  <metadata
     id="metadata1">
Created by potrace 1.10, written by Peter Selinger 2001-2011
</metadata>
  <g
     transform="matrix(0.1,0,0,-0.1,-79.299995,184.2)"
     fill="#000000"
     stroke="none"
     id="g2">
    <path
       d="m 794,1515 -1,-327 186,4 c 179,3 188,4 246,31 74,34 119,76 153,142 21,41 27,67 30,145 4,92 3,97 -30,160 -21,41 -49,76 -76,97 -70,53 -125,65 -327,70 l -180,5 z m 350,290 c 154,-40 239,-183 206,-348 -21,-107 -67,-170 -160,-218 -40,-21 -62,-24 -192,-27 l -148,-4 v 306 306 h 118 c 73,0 140,-6 176,-15 z"
       id="path1" />
    <path
       d="m 1633,1515 2,-327 168,1 c 220,2 275,17 357,100 75,75 94,128 88,255 -3,78 -8,99 -31,138 -34,59 -87,102 -157,130 -48,19 -80,22 -242,26 l -187,4 z m 390,282 c 61,-27 111,-71 142,-129 27,-47 30,-62 30,-143 0,-113 -25,-175 -96,-239 -70,-63 -116,-76 -276,-76 h -133 v 306 306 l 148,-4 c 108,-3 157,-9 185,-21 z"
       id="path2" />
  </g>
</svg>
